<svg id="Layer_1" data-name="Layer 1" xmlns="http://www.w3.org/2000/svg" viewBox="0 0 1133.86 1133.86"><defs><style>.cls-1{fill:#212529;}.cls-2{fill:#f6e6d5;}</style></defs><title>rb</title><rect class="cls-1" width="1133.86" height="1133.86"/><polygon class="cls-2" points="678.46 283.81 292.39 283.81 292.39 669.88 485.43 850.04 841.47 850.04 841.47 446.82 678.46 283.81"/><polygon class="cls-1" points="696.04 714.41 618.76 714.3 617.27 712.79 617.26 712.79 606.82 702.18 604.02 699.34 599.32 694.56 593.08 688.23 580.99 675.95 557.26 651.86 557.28 633.35 581.01 657.45 593.11 669.72 615.74 692.69 619.08 696.09 619.71 696.73 625.11 702.2 665.82 702.26 662.35 698.76 671.57 689.57 684.1 702.29 696.04 714.41"/><path class="cls-1" d="M677.88,591.1a89.51,89.51,0,0,0-6.83-12.33,87,87,0,0,0-10.17-12.59c-1.13-1.18-2.32-2.33-3.52-3.43q1.64-1.8,3.16-3.71a85.38,85.38,0,0,0,18.85-53.53v-.68a85.55,85.55,0,0,0-14.68-47.45,86.28,86.28,0,0,0-27.72-26,85.29,85.29,0,0,0-43.26-11.76l-116-.16,0,29.94,11.62,4.24,0-22.47,104.08.14A72.61,72.61,0,0,1,666,504.07v.74a72.14,72.14,0,0,1-9.61,35.3,73.27,73.27,0,0,1-7.06,10.18c-1.05,1.26-2.15,2.5-3.28,3.68a72.74,72.74,0,0,1-9.53,8.44c-1.45,1.07-3,2.09-4.48,3.06a72.35,72.35,0,0,1-38.79,11.14l0-27.57a45.52,45.52,0,0,0,24-7c1-.63,2-1.3,3-2,.76-.56,1.51-1.15,2.24-1.77a45.76,45.76,0,0,0,16.33-33.51c0-.53,0-1,0-1.56a45.85,45.85,0,0,0-45.4-45.93H593l-154.8-.22-.37,257,87.95.12L526,539.93l-48.43-.07-.07,50.46,36.32,0L513.68,702,489,702l.11-77.51-11.63,0L477.35,702,450,702l.33-232.77,27.39,0-.05,35.33h11.63l.05-35.32,103.2.14h1.76a33.86,33.86,0,0,1,32.93,33.89c0,.5,0,1,0,1.48a33.81,33.81,0,0,1-33.88,32.34,33.49,33.49,0,0,1-10.6-1.71c-.5-.16-1-.35-1.5-.54l-.06,43.5-43.46-.06-3.73,12.11,67.28.1a42.37,42.37,0,0,0,7-.59,85.12,85.12,0,0,0,30.34-11.48c2-1.26,4-2.61,5.95-4,1.33-1,2.64-2,3.9-3,1.21,1.11,2.39,2.26,3.51,3.46s2.37,2.58,3.49,4a73.3,73.3,0,0,1,8.22,12.33,74.64,74.64,0,0,1,8.69,35.21v.76a74.67,74.67,0,0,1-9.62,36c-.28.48-.55,1-.84,1.44-1,1.73-2.11,3.39-3.26,5-1,1.35-2,2.66-3,3.92l-3.45-3.51-33-33.48-26-26.38,0-12.93-12.11,0,0,19.19,12.09,12.27,26,26.38L643,679.08l3.48,3.52,10.3,10.46a86.93,86.93,0,0,0,9-9.41q1.57-1.9,3-3.9A87.32,87.32,0,0,0,678.38,663a88.43,88.43,0,0,0,7.34-35.27v-.68A88.39,88.39,0,0,0,677.88,591.1ZM489.15,578.22l0-27.84,24.7,0,0,27.84Z"/><polygon class="cls-1" points="611.94 714.04 540.77 713.94 545.04 701.84 599.85 701.92 611.94 714.04"/></svg>