<svg id="Layer_1" data-name="Layer 1" xmlns="http://www.w3.org/2000/svg" viewBox="0 0 1133.86 1133.86"><defs><style>.cls-1{fill:#f6e6d5;}.cls-2{fill:#1b2121;}</style></defs><title>rbs1</title><rect class="cls-1" width="1133.86" height="1133.86"/><path class="cls-2" d="M723.79,648.81a117.66,117.66,0,0,1-9.71,47,116.19,116.19,0,0,1-12.77,22.31c-1.29,1.77-2.63,3.51-4,5.2a116.37,116.37,0,0,1-12,12.55l-13.74-13.91L667,717.24l-31.8-32.19L600.51,650l-16.12-16.32V608.1h16.12v17.22l34.65,35.08,44,44.54,4.61,4.67c1.38-1.69,2.72-3.43,4-5.23q2.29-3.23,4.34-6.67c.38-.64.75-1.28,1.11-1.93A99.29,99.29,0,0,0,706,647.89c0-.34,0-.67,0-1a99.21,99.21,0,0,0-22.61-63.3q-2.25-2.7-4.65-5.25-2.28-2.39-4.69-4.6a97.12,97.12,0,0,0-15.91-11.87,96.87,96.87,0,0,0,12.69-11.25,115.26,115.26,0,0,1,15.09,11.67q2.42,2.21,4.71,4.56a116.29,116.29,0,0,1,13.55,16.74,116.93,116.93,0,0,1,19.63,64.31C723.79,648.2,723.79,648.5,723.79,648.81Z" transform="translate(0.19 0.27)"/><path class="cls-2" d="M737.7,764.2H634.77l-2-2h0l-13.93-14.1-3.73-3.77L608.84,738l-8.33-8.43-16.12-16.33-31.66-32.05V656.49l31.66,32.06,16.12,16.32,30.19,30.56,4.46,4.52.84.85,7.19,7.28h54.23l-7.51-7.6a122.21,122.21,0,0,0,12-12.52l19.87,20.12Z" transform="translate(0.19 0.27)"/><path class="cls-2" d="M658.11,561.86q-2.9,2.14-6,4.08a96.32,96.32,0,0,1-51.65,14.93V544.14a60.82,60.82,0,0,0,31.9-9.31c1.36-.85,2.67-1.75,4-2.7,1-.76,2-1.54,3-2.36A61,61,0,0,0,661,485.09c0-.69,0-1.37,0-2.06a61.09,61.09,0,0,0-60.57-61.1H393.77V764.2H510.91V532.13H446.4v67.21h48.38V748.08H461.87V644.84H446.4V748.08H409.91V438H446.4v47h15.47V438H601.68a45.11,45.11,0,0,1,43.93,45.09c0,.66,0,1.31,0,2A45.15,45.15,0,0,1,586.39,526c-.67-.22-1.35-.46-2-.72V583.2H526.51l-5,16.14h89.62a54.12,54.12,0,0,0,9.34-.8A113.42,113.42,0,0,0,660.9,583.2q4.08-2.52,7.93-5.39,2.65-1.95,5.19-4.08A97.12,97.12,0,0,0,658.11,561.86ZM461.87,583.2V546.11h32.91V583.2ZM715.1,485.09a113.73,113.73,0,0,0-19.63-63.17,114.14,114.14,0,0,0-94.61-50.18H446.4v39.89l15.47,5.62V387.32H600.51a96.72,96.72,0,0,1,96.78,96.78c0,.33,0,.65,0,1a96.43,96.43,0,0,1-22.12,60.59q-2.1,2.55-4.36,4.93a115.26,115.26,0,0,1,15.09,11.67c1.45-1.61,2.86-3.27,4.21-5a113.84,113.84,0,0,0,25-71.33C715.11,485.69,715.11,485.39,715.1,485.09Z" transform="translate(0.19 0.27)"/><polygon class="cls-2" points="625.88 764.14 531.09 764.14 536.74 748.02 609.74 748.02 625.88 764.14"/></svg>